HIERARCHY
ROOT mixamorig:Hips
{
	OFFSET -0.000008 104.274872 1.554316
	CHANNELS 6 Xposition Yposition Zposition Xrotation Yrotation Zrotation
	JOINT mixamorig:Spine
	{
		OFFSET -0.000005 10.181595 0.131519
		CHANNELS 6 Xposition Yposition Zposition Xrotation Yrotation Zrotation
		JOINT mixamorig:Spine1
		{
			OFFSET -0.000000 9.893959 -1.470707
			CHANNELS 6 Xposition Yposition Zposition Xrotation Yrotation Zrotation
			JOINT mixamorig:Spine2
			{
				OFFSET -0.000000 9.220757 -1.370641
				CHANNELS 6 Xposition Yposition Zposition Xrotation Yrotation Zrotation
				JOINT mixamorig:Neck
				{
					OFFSET 0.000001 16.740417 -2.049036
					CHANNELS 6 Xposition Yposition Zposition Xrotation Yrotation Zrotation
					JOINT mixamorig:Head
					{
						OFFSET 0.000000 9.617874 1.685006
						CHANNELS 6 Xposition Yposition Zposition Xrotation Yrotation Zrotation
						JOINT mixamorig:HeadTop_End
						{
							OFFSET 0.000002 22.037354 7.501101
							CHANNELS 6 Xposition Yposition Zposition Xrotation Yrotation Zrotation
							End Site
							{
								OFFSET 0.000168 2310.654297 -282.823242
							}
						}
					}
				}
				JOINT mixamorig:RightShoulder
				{
					OFFSET -4.569970 11.014908 -2.160885
					CHANNELS 6 Xposition Yposition Zposition Xrotation Yrotation Zrotation
					JOINT mixamorig:RightArm
					{
						OFFSET -10.592851 -0.524811 -2.232101
						CHANNELS 6 Xposition Yposition Zposition Xrotation Yrotation Zrotation
						JOINT mixamorig:RightForeArm
						{
							OFFSET -27.841511 0.000031 -0.000004
							CHANNELS 6 Xposition Yposition Zposition Xrotation Yrotation Zrotation
							JOINT mixamorig:RightHand
							{
								OFFSET -28.328831 -0.000015 0.000015
								CHANNELS 6 Xposition Yposition Zposition Xrotation Yrotation Zrotation
								JOINT mixamorig:RightHandThumb1
								{
									OFFSET -2.464806 -1.573990 2.681852
									CHANNELS 6 Xposition Yposition Zposition Xrotation Yrotation Zrotation
									JOINT mixamorig:RightHandThumb2
									{
										OFFSET -3.215179 -1.872803 1.924282
										CHANNELS 6 Xposition Yposition Zposition Xrotation Yrotation Zrotation
										JOINT mixamorig:RightHandThumb3
										{
											OFFSET -2.654831 -1.527969 1.512609
											CHANNELS 6 Xposition Yposition Zposition Xrotation Yrotation Zrotation
											JOINT mixamorig:RightHandThumb4
											{
												OFFSET -2.018814 -1.152008 1.108052
												CHANNELS 6 Xposition Yposition Zposition Xrotation Yrotation Zrotation
												End Site
												{
													OFFSET -188.809540 -114.533607 132.431396
												}
											}
										}
									}
								}
								JOINT mixamorig:RightHandIndex1
								{
									OFFSET -9.108284 -0.517868 2.259835
									CHANNELS 6 Xposition Yposition Zposition Xrotation Yrotation Zrotation
									JOINT mixamorig:RightHandIndex2
									{
										OFFSET -3.699989 0.000000 0.001215
										CHANNELS 6 Xposition Yposition Zposition Xrotation Yrotation Zrotation
										JOINT mixamorig:RightHandIndex3
										{
											OFFSET -2.850006 0.000031 -0.000522
											CHANNELS 6 Xposition Yposition Zposition Xrotation Yrotation Zrotation
											JOINT mixamorig:RightHandIndex4
											{
												OFFSET -2.772186 -0.000015 -0.000020
												CHANNELS 6 Xposition Yposition Zposition Xrotation Yrotation Zrotation
												End Site
												{
													OFFSET -277.218445 0.000000 -0.050231
												}
											}
										}
									}
								}
								JOINT mixamorig:RightHandMiddle1
								{
									OFFSET -9.532516 -0.000031 -0.000023
									CHANNELS 6 Xposition Yposition Zposition Xrotation Yrotation Zrotation
									JOINT mixamorig:RightHandMiddle2
									{
										OFFSET -3.700005 -0.000015 0.003713
										CHANNELS 6 Xposition Yposition Zposition Xrotation Yrotation Zrotation
										JOINT mixamorig:RightHandMiddle3
										{
											OFFSET -2.949974 0.000015 -0.002054
											CHANNELS 6 Xposition Yposition Zposition Xrotation Yrotation Zrotation
											JOINT mixamorig:RightHandMiddle4
											{
												OFFSET -2.946640 0.000000 -0.000156
												CHANNELS 6 Xposition Yposition Zposition Xrotation Yrotation Zrotation
												End Site
												{
													OFFSET -294.664337 0.000000 -0.113670
												}
											}
										}
									}
								}
								JOINT mixamorig:RightHandRing1
								{
									OFFSET -9.103600 -0.043076 -1.865134
									CHANNELS 6 Xposition Yposition Zposition Xrotation Yrotation Zrotation
									JOINT mixamorig:RightHandRing2
									{
										OFFSET -3.379288 0.000000 -0.001055
										CHANNELS 6 Xposition Yposition Zposition Xrotation Yrotation Zrotation
										JOINT mixamorig:RightHandRing3
										{
											OFFSET -2.889687 -0.000015 0.000379
											CHANNELS 6 Xposition Yposition Zposition Xrotation Yrotation Zrotation
											JOINT mixamorig:RightHandRing4
											{
												OFFSET -2.638809 -0.000015 0.000941
												CHANNELS 6 Xposition Yposition Zposition Xrotation Yrotation Zrotation
												End Site
												{
													OFFSET -263.880371 0.000000 0.516020
												}
											}
										}
									}
								}
								JOINT mixamorig:RightHandPinky1
								{
									OFFSET -8.076683 -0.486710 -3.806280
									CHANNELS 6 Xposition Yposition Zposition Xrotation Yrotation Zrotation
									JOINT mixamorig:RightHandPinky2
									{
										OFFSET -3.600014 -0.000015 -0.003747
										CHANNELS 6 Xposition Yposition Zposition Xrotation Yrotation Zrotation
										JOINT mixamorig:RightHandPinky3
										{
											OFFSET -2.099983 0.000000 -0.005739
											CHANNELS 6 Xposition Yposition Zposition Xrotation Yrotation Zrotation
											JOINT mixamorig:RightHandPinky4
											{
												OFFSET -2.115768 -0.000031 -0.003680
												CHANNELS 6 Xposition Yposition Zposition Xrotation Yrotation Zrotation
												End Site
												{
													OFFSET -211.577087 0.000000 -0.350686
												}
											}
										}
									}
								}
							}
						}
					}
				}
				JOINT mixamorig:LeftShoulder
				{
					OFFSET 4.570447 11.014725 -2.160855
					CHANNELS 6 Xposition Yposition Zposition Xrotation Yrotation Zrotation
					JOINT mixamorig:LeftArm
					{
						OFFSET 10.592371 -0.524597 -2.232119
						CHANNELS 6 Xposition Yposition Zposition Xrotation Yrotation Zrotation
						JOINT mixamorig:LeftForeArm
						{
							OFFSET 27.841532 -0.000031 0.000026
							CHANNELS 6 Xposition Yposition Zposition Xrotation Yrotation Zrotation
							JOINT mixamorig:LeftHand
							{
								OFFSET 28.328846 -0.000061 0.000022
								CHANNELS 6 Xposition Yposition Zposition Xrotation Yrotation Zrotation
								JOINT mixamorig:LeftHandThumb1
								{
									OFFSET 2.466141 -1.576172 2.681732
									CHANNELS 6 Xposition Yposition Zposition Xrotation Yrotation Zrotation
									JOINT mixamorig:LeftHandThumb2
									{
										OFFSET 3.217812 -1.872070 1.916482
										CHANNELS 6 Xposition Yposition Zposition Xrotation Yrotation Zrotation
										JOINT mixamorig:LeftHandThumb3
										{
											OFFSET 2.656029 -1.528778 1.514513
											CHANNELS 6 Xposition Yposition Zposition Xrotation Yrotation Zrotation
											JOINT mixamorig:LeftHandThumb4
											{
												OFFSET 2.020889 -1.154053 1.115139
												CHANNELS 6 Xposition Yposition Zposition Xrotation Yrotation Zrotation
												End Site
												{
													OFFSET 190.885437 -115.081749 130.048782
												}
											}
										}
									}
								}
								JOINT mixamorig:LeftHandIndex1
								{
									OFFSET 9.109314 -0.518021 2.259871
									CHANNELS 6 Xposition Yposition Zposition Xrotation Yrotation Zrotation
									JOINT mixamorig:LeftHandIndex2
									{
										OFFSET 3.699989 0.000000 -0.000322
										CHANNELS 6 Xposition Yposition Zposition Xrotation Yrotation Zrotation
										JOINT mixamorig:LeftHandIndex3
										{
											OFFSET 2.850006 0.000000 0.000352
											CHANNELS 6 Xposition Yposition Zposition Xrotation Yrotation Zrotation
											JOINT mixamorig:LeftHandIndex4
											{
												OFFSET 2.774864 -0.000031 -0.000027
												CHANNELS 6 Xposition Yposition Zposition Xrotation Yrotation Zrotation
												End Site
												{
													OFFSET 277.486267 0.000000 -0.009857
												}
											}
										}
									}
								}
								JOINT mixamorig:LeftHandMiddle1
								{
									OFFSET 9.533394 0.000061 0.000044
									CHANNELS 6 Xposition Yposition Zposition Xrotation Yrotation Zrotation
									JOINT mixamorig:LeftHandMiddle2
									{
										OFFSET 3.699989 -0.000015 -0.000231
										CHANNELS 6 Xposition Yposition Zposition Xrotation Yrotation Zrotation
										JOINT mixamorig:LeftHandMiddle3
										{
											OFFSET 2.949997 -0.000015 -0.000059
											CHANNELS 6 Xposition Yposition Zposition Xrotation Yrotation Zrotation
											JOINT mixamorig:LeftHandMiddle4
											{
												OFFSET 2.952896 0.000031 0.000063
												CHANNELS 6 Xposition Yposition Zposition Xrotation Yrotation Zrotation
												End Site
												{
													OFFSET 295.289337 0.000000 0.022810
												}
											}
										}
									}
								}
								JOINT mixamorig:LeftHandRing1
								{
									OFFSET 9.104523 -0.042999 -1.865074
									CHANNELS 6 Xposition Yposition Zposition Xrotation Yrotation Zrotation
									JOINT mixamorig:LeftHandRing2
									{
										OFFSET 3.150009 -0.000031 0.000043
										CHANNELS 6 Xposition Yposition Zposition Xrotation Yrotation Zrotation
										JOINT mixamorig:LeftHandRing3
										{
											OFFSET 2.949982 -0.000015 0.000040
											CHANNELS 6 Xposition Yposition Zposition Xrotation Yrotation Zrotation
											JOINT mixamorig:LeftHandRing4
											{
												OFFSET 2.644348 0.000000 0.000057
												CHANNELS 6 Xposition Yposition Zposition Xrotation Yrotation Zrotation
												End Site
												{
													OFFSET 264.434631 0.000000 0.012105
												}
											}
										}
									}
								}
								JOINT mixamorig:LeftHandPinky1
								{
									OFFSET 8.077789 -0.486847 -3.806259
									CHANNELS 6 Xposition Yposition Zposition Xrotation Yrotation Zrotation
									JOINT mixamorig:LeftHandPinky2
									{
										OFFSET 3.599953 0.000031 0.014727
										CHANNELS 6 Xposition Yposition Zposition Xrotation Yrotation Zrotation
										JOINT mixamorig:LeftHandPinky3
										{
											OFFSET 2.100021 0.000015 0.007705
											CHANNELS 6 Xposition Yposition Zposition Xrotation Yrotation Zrotation
											JOINT mixamorig:LeftHandPinky4
											{
												OFFSET 2.125504 0.000031 0.007517
												CHANNELS 6 Xposition Yposition Zposition Xrotation Yrotation Zrotation
												End Site
												{
													OFFSET 212.550781 0.000000 0.625752
												}
											}
										}
									}
								}
							}
						}
					}
				}
			}
		}
	}
	JOINT mixamorig:RightUpLeg
	{
		OFFSET -8.207787 -6.751648 -1.599560
		CHANNELS 6 Xposition Yposition Zposition Xrotation Yrotation Zrotation
		JOINT mixamorig:RightLeg
		{
			OFFSET -0.000002 -44.370117 0.345942
			CHANNELS 6 Xposition Yposition Zposition Xrotation Yrotation Zrotation
			JOINT mixamorig:RightFoot
			{
				OFFSET 0.000003 -44.423679 -3.043532
				CHANNELS 6 Xposition Yposition Zposition Xrotation Yrotation Zrotation
				JOINT mixamorig:RightToeBase
				{
					OFFSET -0.000002 -8.728671 10.710558
					CHANNELS 6 Xposition Yposition Zposition Xrotation Yrotation Zrotation
					JOINT mixamorig:RightToe_End
					{
						OFFSET -0.000001 -0.000679 9.278119
						CHANNELS 6 Xposition Yposition Zposition Xrotation Yrotation Zrotation
						End Site
						{
							OFFSET 0.000000 -0.067690 927.812134
						}
					}
				}
			}
		}
	}
	JOINT mixamorig:LeftUpLeg
	{
		OFFSET 8.207793 -6.751686 -1.599556
		CHANNELS 6 Xposition Yposition Zposition Xrotation Yrotation Zrotation
		JOINT mixamorig:LeftLeg
		{
			OFFSET -0.000004 -44.370014 0.346954
			CHANNELS 6 Xposition Yposition Zposition Xrotation Yrotation Zrotation
			JOINT mixamorig:LeftFoot
			{
				OFFSET -0.000001 -44.423672 -3.044401
				CHANNELS 6 Xposition Yposition Zposition Xrotation Yrotation Zrotation
				JOINT mixamorig:LeftToeBase
				{
					OFFSET -0.000002 -8.728669 10.710558
					CHANNELS 6 Xposition Yposition Zposition Xrotation Yrotation Zrotation
					JOINT mixamorig:LeftToe_End
					{
						OFFSET -0.000003 -0.000679 9.278133
						CHANNELS 6 Xposition Yposition Zposition Xrotation Yrotation Zrotation
						End Site
						{
							OFFSET 0.000000 -0.068021 927.813477
						}
					}
				}
			}
		}
	}
}
MOTION
Frames: 3
Frame Time: 0.033333
0.000006 104.270477 1.554256 0.000010 0.000003 -0.000113 -0.000005 10.181587 0.131522 0.000001 -0.000003 0.000084 -0.000000 9.893967 -1.470711 0.000001 0.000000 -0.000000 -0.000000 9.220802 -1.370642 0.000000 -0.000000 -0.000000 0.000001 16.740433 -2.049030 0.000000 -0.000000 -0.000000 0.000000 9.617859 1.685014 0.000000 0.000000 0.000000 0.000002 22.037384 7.501101 0.000000 -0.000000 0.000000 -4.569968 11.014880 -2.160881 0.000008 0.000001 -0.000038 -10.592855 -0.524657 -2.232045 71.851924 2.479721 -1.796874 -27.841526 -0.000001 0.000545 -54.755082 116.110211 79.420244 -28.328852 0.000006 0.000025 -0.000322 -0.000044 0.000007 -2.464441 -1.573734 2.682322 -50.637277 -171.961050 -17.861049 -3.215281 -1.872612 1.924667 156.572565 30.372997 -4.540652 -2.654946 -1.527867 1.513085 145.651803 26.798170 -41.745078 -2.018826 -1.151987 1.108070 0.000003 0.000001 0.000005 -9.108386 -0.517558 2.260150 101.153613 17.296346 -21.020708 -3.700060 0.000320 0.001523 99.554652 13.214940 -15.570084 -2.850065 0.000383 -0.000221 100.761942 9.770638 -11.788493 -2.772188 -0.000004 -0.000018 -0.000000 0.000003 -0.000002 -9.532607 0.000254 0.000260 96.830690 18.183029 -20.607912 -3.700083 0.000328 0.003986 96.634903 12.428613 -13.837375 -2.950062 0.000344 -0.001792 98.552881 10.515767 -12.195468 -2.946629 0.000006 -0.000150 -0.000002 -0.000001 0.000002 -9.103696 -0.042767 -1.864844 94.509915 19.296415 -20.795925 -3.379335 0.000321 -0.000799 95.190898 10.031462 -10.997591 -2.889753 0.000352 0.000664 100.064505 5.650764 -6.793097 -2.638814 -0.000017 0.000940 0.000002 0.000001 -0.000001 -8.076774 -0.486399 -3.806031 85.452305 20.374164 -18.703225 -3.600052 0.000284 -0.003513 90.166495 9.593207 -9.259755 -2.100003 0.000339 -0.005488 91.930876 4.492217 -4.422950 -2.115777 -0.000042 -0.003676 0.000001 0.000002 -0.000003 4.570446 11.014691 -2.160851 -0.000018 0.000010 -0.000021 10.592357 -0.524533 -2.232272 72.597411 13.096189 -9.638888 27.841845 0.000145 -0.000221 109.230626 -60.804550 79.120720 28.328842 -0.000027 0.000017 0.000018 -0.000089 -0.000001 2.465988 -1.576167 2.681891 -40.999122 152.988287 -3.643838 3.217747 -1.871739 1.916366 152.488727 -32.675003 -12.885937 2.656090 -1.528633 1.514457 141.934008 -27.622701 40.299240 2.020898 -1.154096 1.115147 0.000001 0.000003 0.000006 9.109401 -0.517823 2.259746 94.483106 -15.391696 16.615574 3.700058 0.000186 -0.000470 94.296902 -14.517270 15.653943 2.850058 0.000205 0.000219 93.831547 -12.843837 13.723195 2.774888 -0.000046 -0.000029 -0.000002 -0.000002 -0.000003 9.533484 0.000249 -0.000085 98.206406 -14.108687 16.252104 3.700055 0.000212 -0.000360 99.439515 -12.820857 15.100611 2.950064 0.000185 -0.000196 101.282300 -16.432913 19.972633 2.952863 -0.000030 0.000055 0.000000 0.000002 -0.000002 9.104594 -0.042807 -1.865221 99.085302 -12.803345 14.992305 3.150051 0.000243 -0.000067 103.301926 -12.234205 15.431363 2.950037 0.000211 -0.000040 108.896042 -13.972613 19.462088 2.644317 0.000016 0.000064 0.000001 -0.000001 0.000000 8.077857 -0.486691 -3.806412 90.274487 -16.213477 16.877259 3.599999 0.000233 0.014566 93.765342 -12.346967 13.716487 2.100065 0.000215 0.007561 100.755822 -11.553212 14.511229 2.125522 -0.000002 0.007499 -0.000002 0.000000 -0.000001 -8.207786 -6.751667 -1.599560 -0.077001 -0.000003 0.000080 -0.000002 -44.370110 0.345938 0.153719 -0.000000 -0.000000 0.000000 -44.423679 -3.043532 -0.076700 0.000000 -0.000002 -0.000006 -8.728667 10.710559 -0.000009 -0.000000 -0.000000 -0.000001 -0.000679 9.278123 0.000000 -0.000000 -0.000000 8.207792 -6.751710 -1.599556 -0.074518 -0.000003 0.000081 -0.000002 -44.370014 0.346960 0.148822 0.000002 0.000000 -0.000001 -44.423664 -3.044403 -0.074314 0.000000 -0.000002 -0.000004 -8.728671 10.710558 0.000007 -0.000000 -0.000000 0.000000 -0.000680 9.278137 -0.000000 0.000000 -0.000001 
0.000006 104.270477 1.554256 0.000010 0.000003 -0.000113 -0.000005 10.181587 0.131522 0.000001 -0.000003 0.000084 -0.000000 9.893967 -1.470711 0.000001 0.000000 -0.000000 -0.000000 9.220802 -1.370642 0.000000 -0.000000 -0.000000 0.000001 16.740433 -2.049030 0.000000 -0.000000 -0.000000 0.000000 9.617859 1.685014 0.000000 0.000000 0.000000 0.000002 22.037384 7.501101 0.000000 -0.000000 0.000000 -4.569968 11.014880 -2.160881 0.000008 0.000001 -0.000038 -10.592865 -0.524667 -2.232040 72.402286 5.436131 -3.980210 -27.841526 0.000013 0.000542 -53.441442 116.601984 78.367371 -28.328827 0.000021 0.000029 -0.000318 -0.000045 0.000006 -2.464424 -1.573752 2.682333 -48.018801 -164.535883 -10.224218 -3.215282 -1.872581 1.924650 154.351470 31.951755 6.162957 -2.654955 -1.527891 1.513075 147.108970 27.064481 -35.438242 -2.018845 -1.152018 1.108065 -0.000009 -0.000000 0.000000 -9.108380 -0.517556 2.260147 102.217804 16.030362 -19.861502 -3.700066 0.000321 0.001514 99.221803 13.260326 -15.532858 -2.850086 0.000374 -0.000248 98.152974 10.635965 -12.255649 -2.772155 -0.000016 -0.000019 -0.000001 -0.000000 -0.000000 -9.532609 0.000267 0.000288 96.919585 17.786169 -20.193972 -3.700069 0.000329 0.003994 97.366546 12.744236 -14.372171 -2.950062 0.000348 -0.001799 99.705435 11.459565 -13.559216 -2.946617 -0.000015 -0.000150 -0.000001 -0.000001 0.000000 -9.103706 -0.042761 -1.864850 94.560711 19.583476 -21.123258 -3.379327 0.000323 -0.000790 95.810014 9.761934 -10.818986 -2.889759 0.000343 0.000658 101.626077 6.799463 -8.391681 -2.638807 0.000001 0.000947 -0.000000 -0.000003 0.000002 -8.076773 -0.486410 -3.806011 84.107523 21.297833 -19.112177 -3.600050 0.000275 -0.003508 87.876715 9.874800 -9.168602 -2.100017 0.000344 -0.005493 91.154229 4.854689 -4.732090 -2.115775 -0.000040 -0.003674 0.000003 -0.000000 -0.000003 4.570446 11.014691 -2.160851 -0.000018 0.000010 -0.000021 10.592358 -0.524549 -2.232259 72.615989 18.001548 -13.277422 27.841852 0.000116 -0.000207 109.411967 -61.625921 80.231766 28.328856 -0.000029 0.000026 0.000019 -0.000089 -0.000000 2.466145 -1.576164 2.681885 -15.297394 153.607744 -53.141399 3.217821 -1.871767 1.916378 161.400758 -28.770259 13.323117 2.656109 -1.528646 1.514439 142.199156 -27.178161 46.738841 2.020895 -1.154078 1.115136 0.000005 -0.000000 0.000001 9.109400 -0.517830 2.259749 100.739478 -18.789338 22.580843 3.700050 0.000203 -0.000452 98.268247 -12.945683 14.961109 2.850043 0.000234 0.000208 97.878981 -9.834162 11.278574 2.774880 -0.000029 -0.000022 -0.000001 0.000003 -0.000000 9.533476 0.000240 -0.000068 101.450337 -18.269552 22.237482 3.700037 0.000220 -0.000377 101.570917 -10.999376 13.455666 2.950042 0.000220 -0.000210 102.189991 -10.290201 12.735773 2.952859 -0.000015 0.000057 0.000002 0.000004 -0.000001 9.104616 -0.042811 -1.865203 101.882380 -17.779768 21.822518 3.150042 0.000244 -0.000099 105.468701 -11.902949 15.606026 2.950029 0.000235 -0.000081 106.846814 -10.008501 13.462447 2.644326 0.000030 0.000054 0.000000 0.000003 -0.000003 8.077874 -0.486691 -3.806381 94.552631 -21.574785 23.972492 3.600004 0.000221 0.014601 95.846829 -17.741165 20.201717 2.100066 0.000222 0.007541 96.628291 -12.554371 14.626558 2.125501 -0.000012 0.007503 -0.000001 -0.000000 -0.000002 -8.207786 -6.751667 -1.599560 -0.077001 -0.000003 0.000080 -0.000002 -44.370110 0.345938 0.153719 -0.000000 -0.000000 0.000000 -44.423679 -3.043532 -0.076700 0.000000 -0.000002 -0.000006 -8.728667 10.710559 -0.000009 -0.000000 -0.000000 -0.000001 -0.000679 9.278123 0.000000 -0.000000 -0.000000 8.207792 -6.751710 -1.599556 -0.074518 -0.000003 0.000081 -0.000002 -44.370014 0.346960 0.148822 0.000002 0.000000 -0.000001 -44.423664 -3.044403 -0.074314 0.000000 -0.000002 -0.000004 -8.728671 10.710558 0.000007 -0.000000 -0.000000 0.000000 -0.000680 9.278137 -0.000000 0.000000 -0.000001 
0.000006 104.270477 1.554256 0.000010 0.000003 -0.000113 -0.000005 10.181587 0.131522 0.000001 -0.000003 0.000084 -0.000000 9.893967 -1.470711 0.000001 0.000000 -0.000000 -0.000000 9.220802 -1.370642 0.000000 -0.000000 -0.000000 0.000001 16.740433 -2.049030 0.000000 -0.000000 -0.000000 0.000000 9.617859 1.685014 0.000000 0.000000 0.000000 0.000002 22.037384 7.501101 0.000000 -0.000000 0.000000 -4.569968 11.014880 -2.160881 0.000008 0.000001 -0.000038 -10.592864 -0.524665 -2.232027 72.638584 5.447299 -4.005662 -27.841528 0.000002 0.000540 -52.855818 116.549733 77.594419 -28.328823 0.000021 0.000027 -0.000319 -0.000045 0.000007 -2.464415 -1.573760 2.682320 -49.275771 -165.697275 -13.559595 -3.215256 -1.872543 1.924628 152.480886 32.357704 10.756811 -2.654974 -1.527856 1.513059 146.778853 27.367134 -32.824940 -2.018827 -1.152014 1.108054 -0.000004 -0.000003 0.000002 -9.108372 -0.517540 2.260133 103.052426 15.017947 -18.893109 -3.700056 0.000308 0.001532 99.574439 12.333527 -14.538346 -2.850077 0.000370 -0.000253 97.640559 9.913882 -11.322939 -2.772185 -0.000015 -0.000013 -0.000000 0.000001 -0.000001 -9.532589 0.000289 0.000259 97.614646 16.517622 -18.995905 -3.700075 0.000335 0.003980 96.889034 12.211830 -13.655165 -2.950067 0.000320 -0.001799 98.103571 11.219550 -12.908556 -2.946632 0.000003 -0.000154 -0.000002 0.000000 -0.000000 -9.103706 -0.042763 -1.864857 95.765270 19.305719 -21.258257 -3.379338 0.000329 -0.000795 95.465718 9.965429 -10.977822 -2.889760 0.000348 0.000665 100.485320 7.138205 -8.630493 -2.638821 -0.000014 0.000935 -0.000004 -0.000000 0.000002 -8.076761 -0.486408 -3.806027 85.602208 21.723734 -20.005655 -3.600031 0.000274 -0.003515 86.425956 10.041305 -9.095779 -2.100015 0.000315 -0.005508 89.144596 4.975605 -4.687903 -2.115758 -0.000042 -0.003680 0.000000 -0.000003 -0.000004 4.570446 11.014691 -2.160851 -0.000018 0.000010 -0.000021 10.592352 -0.524552 -2.232252 72.565412 18.178586 -13.396719 27.841858 0.000116 -0.000228 109.673932 -62.787047 81.802765 28.328821 -0.000044 0.000013 0.000020 -0.000088 0.000001 2.466236 -1.576059 2.681841 14.787592 164.190234 -103.805208 3.217823 -1.871728 1.916390 167.674792 -29.264874 11.368821 2.656099 -1.528595 1.514457 150.061852 -25.612243 41.720967 2.020891 -1.154055 1.115150 0.000002 0.000001 0.000002 9.109385 -0.517831 2.259759 106.996170 -19.705495 26.399041 3.700051 0.000214 -0.000445 105.602415 -12.390841 16.300656 2.850064 0.000259 0.000214 104.717107 -8.928003 11.558398 2.774878 -0.000029 -0.000025 -0.000000 -0.000002 -0.000002 9.533470 0.000244 -0.000062 104.962153 -17.961330 23.248656 3.700049 0.000237 -0.000385 106.576551 -9.506946 12.722368 2.950052 0.000243 -0.000190 106.697138 -8.980810 12.053950 2.952866 -0.000018 0.000071 -0.000001 0.000003 -0.000000 9.104594 -0.042804 -1.865209 104.551106 -17.421702 22.408859 3.150064 0.000249 -0.000105 107.413645 -11.836218 16.070960 2.950022 0.000245 -0.000052 107.865298 -9.985334 13.681532 2.644318 0.000047 0.000056 0.000003 0.000001 -0.000000 8.077843 -0.486695 -3.806407 95.186691 -21.114644 23.730058 3.600027 0.000211 0.014577 94.165352 -18.292259 20.219440 2.100053 0.000218 0.007557 93.897172 -13.148212 14.587022 2.125476 -0.000018 0.007511 0.000002 0.000006 0.000001 -8.207786 -6.751667 -1.599560 -0.077001 -0.000003 0.000080 -0.000002 -44.370110 0.345938 0.153719 -0.000000 -0.000000 0.000000 -44.423679 -3.043532 -0.076700 0.000000 -0.000002 -0.000006 -8.728667 10.710559 -0.000009 -0.000000 -0.000000 -0.000001 -0.000679 9.278123 0.000000 -0.000000 -0.000000 8.207792 -6.751710 -1.599556 -0.074518 -0.000003 0.000081 -0.000002 -44.370014 0.346960 0.148822 0.000002 0.000000 -0.000001 -44.423664 -3.044403 -0.074314 0.000000 -0.000002 -0.000004 -8.728671 10.710558 0.000007 -0.000000 -0.000000 0.000000 -0.000680 9.278137 -0.000000 0.000000 -0.000001 
